<svg xmlns="http://www.w3.org/2000/svg" width="1em" height="1em" viewBox="0 0 1024 1024">
<path fill="currentColor" d="M841.142857 0c100.992 0 182.857143 81.865143 182.857143 182.857143v658.285714c0 100.992-81.865143 182.857143-182.857143 182.857143H182.857143C81.865143 1024 0 942.134857 0 841.142857V182.857143C0 81.865143 81.865143 0 182.857143 0h658.285714z m0.548572 406.016c-55.588571 11.702857-88.539429 51.254857-98.889143 118.637714-10.148571 66.176-51.748571 283.958857-21.632 314.166857-56.612571 19.785143-131.474286 31.817143-213.595429 31.817143-83.2 0-158.976-12.361143-215.954286-32.493714 30.116571-30.244571-10.861714-247.314286-21.028571-313.490286-10.331429-67.382857-43.282286-106.934857-98.870857-118.637714l55.990857 208.969143 1.993143 7.789714 54.144 212.352 0.237714 0.091429-0.237714-0.073143C306.304 901.339429 397.366857 950.857143 506.276571 950.857143c108.324571 0 198.985143-49.005714 222.061715-114.614857l57.362285-221.257143zM123.245714 73.179429l-1.956571 3.401142A230.546286 230.546286 0 0 0 91.428571 190.427429C91.428571 318.354286 195.108571 422.034286 323.035429 422.034286h367.469714c127.908571 0 231.606857-103.68 231.606857-231.606857 0-40.173714-10.24-77.970286-28.251429-110.902858 1.554286 10.861714 2.377143 21.979429 2.377143 33.28 0 127.908571-103.698286 231.606857-231.606857 231.606858H351.506286l-5.632-0.073143c-125.312-2.980571-225.974857-105.508571-225.974857-231.533715 0-13.513143 1.152-26.752 3.364571-39.625142z"></path>
</svg>
